<svg width="88" height="37" viewBox="0 0 88 37" fill="none" xmlns="http://www.w3.org/2000/svg">
<path d="M6.84375 36H0.0234375V30H6.84375V36Z" fill="#FF0101"/>
<path d="M19.9453 4.40625V10.6406H24.2812V15.6094H19.9453V28.2656C19.9453 29.2031 20.125 29.875 20.4844 30.2812C20.8438 30.6875 21.5312 30.8906 22.5469 30.8906C23.2969 30.8906 23.9609 30.8359 24.5391 30.7266V35.8594C23.2109 36.2656 21.8438 36.4688 20.4375 36.4688C15.6875 36.4688 13.2656 34.0703 13.1719 29.2734V15.6094H9.46875V10.6406H13.1719V4.40625H19.9453ZM38.6016 31.0078C39.8516 31.0078 40.8672 30.6641 41.6484 29.9766C42.4297 29.2891 42.8359 28.375 42.8672 27.2344H49.2188C49.2031 28.9531 48.7344 30.5312 47.8125 31.9688C46.8906 33.3906 45.625 34.5 44.0156 35.2969C42.4219 36.0781 40.6562 36.4688 38.7188 36.4688C35.0938 36.4688 32.2344 35.3203 30.1406 33.0234C28.0469 30.7109 27 27.5234 27 23.4609V23.0156C27 19.1094 28.0391 15.9922 30.1172 13.6641C32.1953 11.3359 35.0469 10.1719 38.6719 10.1719C41.8438 10.1719 44.3828 11.0781 46.2891 12.8906C48.2109 14.6875 49.1875 17.0859 49.2188 20.0859H42.8672C42.8359 18.7734 42.4297 17.7109 41.6484 16.8984C40.8672 16.0703 39.8359 15.6562 38.5547 15.6562C36.9766 15.6562 35.7812 16.2344 34.9688 17.3906C34.1719 18.5312 33.7734 20.3906 33.7734 22.9688V23.6719C33.7734 26.2812 34.1719 28.1562 34.9688 29.2969C35.7656 30.4375 36.9766 31.0078 38.6016 31.0078ZM60.2344 36H53.4375V0H60.2344V36ZM80.5312 36C80.2188 35.3906 79.9922 34.6328 79.8516 33.7266C78.2109 35.5547 76.0781 36.4688 73.4531 36.4688C70.9688 36.4688 68.9062 35.75 67.2656 34.3125C65.6406 32.875 64.8281 31.0625 64.8281 28.875C64.8281 26.1875 65.8203 24.125 67.8047 22.6875C69.8047 21.25 72.6875 20.5234 76.4531 20.5078H79.5703V19.0547C79.5703 17.8828 79.2656 16.9453 78.6562 16.2422C78.0625 15.5391 77.1172 15.1875 75.8203 15.1875C74.6797 15.1875 73.7812 15.4609 73.125 16.0078C72.4844 16.5547 72.1641 17.3047 72.1641 18.2578H65.3906C65.3906 16.7891 65.8438 15.4297 66.75 14.1797C67.6562 12.9297 68.9375 11.9531 70.5938 11.25C72.25 10.5312 74.1094 10.1719 76.1719 10.1719C79.2969 10.1719 81.7734 10.9609 83.6016 12.5391C85.4453 14.1016 86.3672 16.3047 86.3672 19.1484V30.1406C86.3828 32.5469 86.7188 34.3672 87.375 35.6016V36H80.5312ZM74.9297 31.2891C75.9297 31.2891 76.8516 31.0703 77.6953 30.6328C78.5391 30.1797 79.1641 29.5781 79.5703 28.8281V24.4688H77.0391C73.6484 24.4688 71.8438 25.6406 71.625 27.9844L71.6016 28.3828C71.6016 29.2266 71.8984 29.9219 72.4922 30.4688C73.0859 31.0156 73.8984 31.2891 74.9297 31.2891Z" fill="black"/>
</svg>
